<?xml version="1.0" standalone="no"?>
<!DOCTYPE svg PUBLIC "-//W3C//DTD SVG 20010904//EN"
 "http://www.w3.org/TR/2001/REC-SVG-20010904/DTD/svg10.dtd">
<svg version="1.0" xmlns="http://www.w3.org/2000/svg"
 width="260.000000pt" height="260.000000pt" viewBox="0 0 260.000000 260.000000"
 preserveAspectRatio="xMidYMid meet">
<metadata>
Created by potrace 1.11, written by Peter Selinger 2001-2013
</metadata>
<g transform="translate(0.000000,260.000000) scale(0.100000,-0.100000)"
fill="#000000" stroke="none">
<path d="M850 2077 l-435 -252 -2 -515 -2 -515 107 -61 107 -61 33 56 c18 31
38 64 45 75 7 12 8 20 2 22 -5 2 -35 19 -65 37 l-55 33 0 414 0 414 350 203
c193 111 357 203 365 203 8 0 173 -91 365 -203 l350 -202 0 -415 0 -415 -185
-108 c-102 -59 -185 -111 -185 -115 1 -20 71 -142 81 -140 6 2 112 62 237 133
l227 130 -3 515 -2 515 -435 252 c-239 138 -442 252 -450 252 -8 0 -211 -114
-450 -252z"/>
<path d="M1200 1898 c-17 -10 -42 -18 -55 -18 -35 0 -113 -38 -153 -74 -24
-22 -32 -37 -29 -53 2 -13 -9 -59 -24 -104 -16 -44 -29 -99 -29 -122 0 -60 26
-174 60 -269 32 -86 36 -134 20 -208 -24 -108 -68 -176 -144 -225 -64 -41
-115 -113 -156 -220 -41 -104 -36 -125 28 -125 67 0 198 -17 267 -36 33 -8
122 -40 200 -71 77 -31 172 -64 210 -74 93 -24 312 -46 326 -32 28 28 -122
341 -209 434 -29 31 -72 66 -97 78 -50 23 -55 40 -34 113 16 59 46 84 126 108
79 23 93 37 93 94 0 19 4 37 10 41 5 3 12 32 16 64 5 49 10 61 30 70 32 14 30
37 -6 91 -33 49 -36 66 -19 103 10 23 2 116 -17 183 -4 17 0 23 20 28 14 3 33
17 41 30 15 22 14 27 -3 57 -24 44 -78 80 -107 73 -13 -3 -39 3 -62 14 -21 11
-57 24 -78 28 -22 4 -49 13 -60 19 -35 22 -131 24 -165 3z"/>
</g>
</svg>
