<?xml version="1.0" standalone="no"?>
<!DOCTYPE svg PUBLIC "-//W3C//DTD SVG 20010904//EN"
 "http://www.w3.org/TR/2001/REC-SVG-20010904/DTD/svg10.dtd">
<svg version="1.0" xmlns="http://www.w3.org/2000/svg"
 width="88.000000pt" height="88.000000pt" viewBox="0 0 88.000000 88.000000"
 preserveAspectRatio="xMidYMid meet">
<metadata>
Created by potrace 1.11, written by Peter Selinger 2001-2013
</metadata>
<g transform="translate(0.000000,88.000000) scale(0.100000,-0.100000)"
fill="#000000" stroke="none">
<path d="M345 866 c-83 -20 -146 -56 -211 -120 -172 -172 -176 -430 -9 -605
174 -183 448 -187 625 -11 176 177 172 451 -11 625 -110 105 -253 145 -394
111z m63 -292 c13 -4 22 -14 22 -26 0 -17 -5 -18 -48 -12 -64 8 -106 -13 -122
-60 -26 -78 17 -146 91 -146 39 0 39 0 39 40 0 38 -2 40 -30 40 -23 0 -30 4
-30 20 0 18 7 20 55 20 l55 0 0 -74 0 -73 -31 -7 c-88 -17 -158 4 -185 56 -24
46 -23 131 3 166 37 51 113 74 181 56z m142 -119 l0 -125 65 0 c58 0 65 -2 65
-20 0 -18 -7 -20 -85 -20 l-85 0 0 145 c0 138 1 145 20 145 19 0 20 -7 20
-125z"/>
</g>
</svg>
