<?xml version="1.0" encoding="UTF-8" standalone="no"?>
<!-- Created with Inkscape (http://www.inkscape.org/) -->

<svg
   xmlns:dc="http://purl.org/dc/elements/1.1/"
   xmlns:cc="http://creativecommons.org/ns#"
   xmlns:rdf="http://www.w3.org/1999/02/22-rdf-syntax-ns#"
   xmlns:svg="http://www.w3.org/2000/svg"
   xmlns="http://www.w3.org/2000/svg"
   xmlns:sodipodi="http://sodipodi.sourceforge.net/DTD/sodipodi-0.dtd"
   xmlns:inkscape="http://www.inkscape.org/namespaces/inkscape"
   width="1200"
   height="1200"
   viewBox="0 0 317.49999 317.50001"
   version="1.1"
   id="svg8"
   inkscape:version="0.92.3 (2405546, 2018-03-11)"
   sodipodi:docname="site_logo.svg">
  <defs
     id="defs2" />
  <sodipodi:namedview
     id="base"
     pagecolor="#ffffff"
     bordercolor="#666666"
     borderopacity="1.0"
     inkscape:pageopacity="0.0"
     inkscape:pageshadow="2"
     inkscape:zoom="0.5"
     inkscape:cx="-49.188539"
     inkscape:cy="634.75833"
     inkscape:document-units="mm"
     inkscape:current-layer="layer6"
     showgrid="false"
     units="px"
     inkscape:window-width="1920"
     inkscape:window-height="1017"
     inkscape:window-x="0"
     inkscape:window-y="30"
     inkscape:window-maximized="1"
     showguides="true"
     inkscape:snap-intersection-paths="true">
    <inkscape:grid
       type="axonomgrid"
       id="grid815"
       units="mm"
       empspacing="5" />
  </sodipodi:namedview>
  <metadata
     id="metadata5">
    <rdf:RDF>
      <cc:Work
         rdf:about="">
        <dc:format>image/svg+xml</dc:format>
        <dc:type
           rdf:resource="http://purl.org/dc/dcmitype/StillImage" />
        <dc:title></dc:title>
      </cc:Work>
    </rdf:RDF>
  </metadata>
  <g
     inkscape:groupmode="layer"
     id="layer6"
     inkscape:label="background"
     style="display:inline">
    <rect
       style="fill:#f3f3f3;fill-opacity:1;stroke:none;stroke-width:0.63880765;stroke-opacity:1"
       id="rect4818"
       width="317.5"
       height="317.5"
       x="0"
       y="1.1444092e-05"
       inkscape:export-xdpi="38.400002"
       inkscape:export-ydpi="38.400002"/>
  </g>
  <g
     inkscape:groupmode="layer"
     id="layer3"
     inkscape:label="title"
     style="display:inline">
    <text
       xml:space="preserve"
       style="font-style:normal;font-variant:normal;font-weight:normal;font-stretch:normal;font-size:59.97957611px;line-height:1.25;font-family:Ubuntu;-inkscape-font-specification:Ubuntu;letter-spacing:0.62478727px;word-spacing:0px;display:inline;fill:#343434;fill-opacity:0.94117647;stroke:none;stroke-width:0.31239361"
       x="87.31591"
       y="245.631"
       id="text4728"><tspan
         sodipodi:role="line"
         x="87.31591"
         y="245.631"
         style="font-style:normal;font-variant:normal;font-weight:normal;font-stretch:normal;font-size:39.98638153px;font-family:Ubuntu;-inkscape-font-specification:Ubuntu;letter-spacing:14.99489403px;fill:#343434;fill-opacity:0.94117647;stroke-width:0.31239361"
         id="tspan8905">GINO</tspan></text>
    <text
       xml:space="preserve"
       style="font-style:normal;font-weight:normal;font-size:12.49574471px;line-height:1.25;font-family:sans-serif;letter-spacing:0px;word-spacing:0px;display:inline;fill:#000000;fill-opacity:1;stroke:none;stroke-width:0.31239361"
       x="88.022812"
       y="269.05542"
       id="text8911"><tspan
         sodipodi:role="line"
         id="tspan8909"
         x="88.022812"
         y="269.05542"
         style="font-style:normal;font-variant:normal;font-weight:500;font-stretch:normal;font-size:22.49234009px;font-family:'Century Schoolbook L';-inkscape-font-specification:'Century Schoolbook L, Medium';font-variant-ligatures:normal;font-variant-caps:normal;font-variant-numeric:normal;font-feature-settings:normal;text-align:start;letter-spacing:0.62478727px;writing-mode:lr-tb;text-anchor:start;stroke-width:0.31239361">LATORILLA</tspan></text>
  </g>
  <g
     inkscape:groupmode="layer"
     id="layer2"
     inkscape:label="graphic"
     style="display:inline">
    <g
       inkscape:groupmode="layer"
       id="layer7"
       inkscape:label="logo-bg"
       style="display:inline" />
    <g
       inkscape:groupmode="layer"
       id="layer5"
       inkscape:label="silhouette"
       style="display:inline">
      <g
         id="g258"
         transform="matrix(0.64077518,0,0,0.64077518,57.026799,27.614024)">
        <path
           inkscape:connector-curvature="0"
           id="path163"
           d="M 158.74964,31.981813 49.975401,94.783146 V 220.38478 l 35.272781,20.36465 42.901778,24.76956 c 1.72315,0.57816 3.43185,1.16218 5.06687,1.77868 2.06009,0.77679 4.06238,1.57933 6.03891,2.39417 1.97652,0.81486 3.92706,1.64211 5.88284,2.46962 1.95578,0.82751 3.91703,1.65486 5.91489,2.46962 1.99785,0.81478 4.03227,1.61702 6.13502,2.39366 2.10275,0.77663 4.27384,1.5281 6.5443,2.2412 0.3858,0.12118 0.82167,0.2232 1.21337,0.34211 l 36.56004,-21.10777 66.01767,-38.1155 V 94.783146 Z"
           style="display:inline;fill:#f3f3f3;fill-opacity:0.89411765;stroke:none;stroke-width:0.38383237;stroke-opacity:1" />
        <path
           id="path14878"
           d="M 158.75016,31.982772 49.975401,94.783146 V 220.38472 l 26.694002,15.41107 c 0.306304,-0.69739 0.566322,-1.41186 0.893935,-2.10045 0.899364,-1.89033 1.878166,-3.74664 2.929064,-5.5596 1.050898,-1.81297 2.174067,-3.5831 3.363213,-5.30242 1.189147,-1.71932 2.444386,-3.38787 3.758495,-4.99727 0.088,-0.10777 0.18685,-0.20369 0.275375,-0.31093 L 71.409162,208.01021 V 107.15765 l 87.340998,-50.425867 87.34182,50.425867 v 100.85256 l -46.63347,26.92307 c 1.13253,1.68541 2.21841,3.40477 3.25488,5.15191 1.06645,1.79765 2.08447,3.62155 3.06138,5.45788 0.97691,1.83634 1.91194,3.68517 2.81164,5.53314 0.31682,0.90526 0.71337,1.8058 1.08909,2.70744 l 57.84859,-33.39893 V 94.783146 Z"
           style="display:inline;fill:#98958d;fill-opacity:0.98823529;stroke:none;stroke-width:0.50763088;stroke-linecap:round;stroke-linejoin:miter;stroke-miterlimit:16.70000076;stroke-dasharray:none;stroke-dashoffset:0;stroke-opacity:1"
           inkscape:connector-curvature="0" />
        <path
           style="display:inline;fill:#61605b;fill-opacity:1;stroke-width:0.39935124"
           d="m 80.318495,254.95091 c 2.836538,-10.25039 8.140948,-21.78145 8.186139,-21.91949 3.189618,-4.83266 9.614379,-14.47111 13.850916,-15.82636 3.93346,-1.02744 10.04871,-6.9674 13.19461,-12.81636 3.89509,-7.24192 5.57407,-12.93466 6.26819,-21.25298 0.10882,-3.01338 0.0186,-8.10593 0.16158,-10.45294 -1.0393,-2.10966 -1.90031,-4.46926 -2.52812,-6.205 -1.00305,-2.79167 -2.44789,-6.76128 -3.21072,-8.82141 -0.76284,-2.06012 -1.38422,-3.84325 -1.38088,-3.96252 0.008,-0.28359 -0.56103,-2.55004 -1.12752,-4.49068 -0.24711,-0.84677 -0.51646,-2.54592 -0.59843,-3.7759 -0.0819,-1.22999 -0.34003,-2.44566 -0.57351,-2.70146 -0.23351,-0.25579 -0.37603,-0.8746 -0.31661,-1.37513 0.0595,-0.50049 -0.18244,-1.82017 -0.5373,-2.93262 -0.35488,-1.11244 -0.61004,-2.39331 -0.56714,-2.84638 0.26542,-2.80133 0.38334,-5.81666 0.24168,-6.1783 -0.0909,-0.23212 0.017,-1.43451 0.23995,-2.67199 0.22349,-1.23737 0.33678,-2.42477 0.25306,-2.63847 -0.0837,-0.2137 0.60808,-2.26607 1.53728,-4.56082 0.92917,-2.29476 1.73829,-4.56605 1.79791,-5.04732 0.0595,-0.48127 0.27087,-0.80401 0.46961,-0.71717 0.19873,0.0866 0.19398,-0.26889 -0.0112,-0.79043 -0.25735,-0.65692 -0.0477,-1.55143 0.68231,-2.91136 0.57961,-1.07967 1.2602,-2.35655 1.51241,-2.83751 0.38088,-0.72626 0.54703,-0.80967 0.98014,-0.49211 0.40955,0.3004 0.46803,0.24228 0.2723,-0.2705 -0.13714,-0.35901 -0.0718,-0.72237 0.14514,-0.80715 0.21656,-0.0848 0.22202,-0.28314 0.0112,-0.44066 -0.20985,-0.15753 -0.50371,-0.12376 -0.65301,0.0753 -0.16175,0.21559 -0.58161,-0.1285 -0.80496,-0.95599 -0.20608,-0.76352 -0.3597,-1.40248 -0.53643,-1.33325 -0.1763,0.0691 -0.38403,-0.0366 -0.46169,-0.23451 -0.0778,-0.19811 0.11586,-0.36196 0.42951,-0.36415 0.35095,-0.002 0.45805,-0.25594 0.27812,-0.65855 -0.16075,-0.36004 -0.15074,-0.74105 0.0226,-0.84678 0.17331,-0.10568 0.35806,-0.50453 0.41063,-0.88624 0.0518,-0.381796 0.83592,-1.120109 1.7408,-1.640889 0.90489,-0.520776 1.78301,-1.262143 1.95142,-1.647494 0.16852,-0.385311 0.66076,-0.868902 1.09411,-1.074588 0.43328,-0.205725 0.93992,-0.478452 1.12585,-0.606031 0.18589,-0.127636 0.49579,-0.321955 0.68861,-0.431937 0.19281,-0.10989 -0.0112,-0.255944 -0.45219,-0.324427 -0.44159,-0.06817 -0.92859,0.04306 -1.08236,0.247909 -0.15362,0.204859 -0.3422,0.21268 -0.41878,0.01727 -0.15123,-0.386115 4.0817,-1.914135 4.89314,-1.766304 0.27061,0.05012 0.64479,-0.186457 0.83122,-0.524016 0.18646,-0.337517 0.49837,-0.628316 0.6931,-0.646213 0.19475,-0.01791 0.6401,-0.378659 0.98971,-0.801643 0.42579,-0.515159 0.97461,-0.772522 1.6623,-0.77945 1.13077,-0.01136 3.55089,-1.048589 4.39965,-1.885505 0.80675,-0.79561 2.50711,-0.886529 4.60339,-0.246147 1.28844,0.393639 2.03064,0.40526 2.39925,0.03775 0.29357,-0.292684 0.84076,-0.610612 1.21598,-0.706531 0.37525,-0.09595 0.61423,-0.348106 0.53108,-0.560331 -0.0869,-0.221657 0.31741,-0.471105 0.94988,-0.586133 0.60555,-0.110145 2.00031,-0.85577 3.09934,-1.657116 1.92597,-1.40417 2.02913,-1.438121 2.84944,-0.937667 0.4681,0.285611 1.47962,0.399214 2.24781,0.252525 0.76816,-0.146614 2.04059,-0.100991 2.82765,0.101536 0.78704,0.202507 2.25134,0.316184 3.25403,0.252536 1.00272,-0.06364 1.99165,0.06895 2.19769,0.29471 0.20595,0.225788 0.4678,0.2863 0.5817,0.134501 0.26188,-0.348944 4.03657,1.413436 5.48795,2.562295 0.68444,0.541753 1.85144,0.880572 3.11224,0.903518 1.10945,0.02023 2.23822,0.108289 2.50838,0.195733 0.27012,0.08745 1.00698,0.327325 1.63747,0.532925 0.63045,0.205742 1.34803,0.189885 1.59463,-0.03516 0.40297,-0.367815 0.77145,-0.03933 0.77042,0.686757 -3e-4,0.150087 0.43423,0.26446 0.96548,0.254275 0.53125,-0.01024 1.54501,0.435109 2.25282,0.989399 0.70782,0.554297 1.41422,0.957967 1.56981,0.897005 0.27799,-0.108897 2.58751,0.87782 4.53539,1.937729 0.63852,0.347501 1.79531,0.383391 3.25795,0.101216 1.24732,-0.240639 2.79293,-0.327444 3.43465,-0.192891 2.19239,0.459637 5.5027,2.470921 6.30495,3.830753 0.42397,0.718508 0.98247,1.223507 1.24119,1.122139 0.25877,-0.101376 0.71308,0.05841 1.00961,0.355072 0.69504,0.695326 2.25161,4.44917 1.66826,4.02336 -0.28949,-0.2113 -0.35975,-0.10813 -0.20427,0.29976 0.13074,0.34194 0.47951,0.62488 0.7758,0.62847 0.40669,0.005 0.4429,0.16559 0.14866,0.65344 -0.2944,0.48844 -0.25806,0.64853 0.14866,0.65344 0.29624,0.003 0.6326,0.24541 0.74702,0.53831 0.45994,1.1741 -0.53423,4.19754 -1.51686,4.61298 -0.25289,0.10721 -0.39439,0.36179 -0.31428,0.5663 0.0802,0.20449 -0.0315,0.44125 -0.24812,0.52608 -0.21654,0.0848 -0.35767,-0.10114 -0.31348,-0.41331 0.0642,-0.45409 0.017,-0.43541 -0.23836,0.0934 -0.17534,0.36351 -0.61984,0.77895 -0.98796,0.92316 -0.36812,0.1442 -0.61306,0.40581 -0.54431,0.58129 0.2152,0.54932 -2.88997,1.34053 -3.84332,0.97931 -0.49952,-0.18842 -1.08273,-0.27538 -1.29673,-0.19153 -0.50704,0.19862 -0.1501,2.13119 0.87913,4.75806 0.4524,1.15482 0.94067,3.40023 1.08505,4.98982 0.5497,6.05235 0.72593,7.29667 1.20727,8.52547 0.46649,1.19073 0.55241,2.16933 0.41815,4.7618 -0.0875,1.69228 -0.53369,2.76533 -1.85045,4.45236 -0.75529,0.96759 -1.16402,1.9571 -1.07985,2.61401 0.16819,1.31187 2.97616,6.4294 5.79417,10.55971 2.05938,3.01839 2.1243,3.1727 2.14067,5.08693 0.0112,1.38059 -0.0659,1.73963 -0.44514,2.18178 -0.87192,1.05905 -2.39662,2.00155 -4.03039,2.3878 -1.93105,0.42491 -2.01073,0.487 -2.00116,1.55927 0.008,0.6142 0.24397,1.99011 0.52999,3.05755 0.60116,2.24367 0.32209,3.35949 -1.07388,4.29334 -0.92172,0.61657 -0.94052,0.75093 -0.25772,1.8428 0.8914,1.42555 0.62507,3.36209 -0.52434,3.81237 -1.17867,0.46175 -2.03326,3.16052 -1.83381,5.79106 0.2726,3.59462 -0.29001,5.58876 -2.14824,7.61403 -1.44606,1.57607 -1.92575,1.8613 -4.39211,2.61123 -1.52276,0.46316 -4.01321,1.11398 -5.53427,1.44645 -1.52098,0.33246 -4.19951,1.13164 -5.9522,1.77594 -2.85762,1.05042 -3.36256,1.36997 -4.88861,3.09382 -1.85745,2.09823 -2.54527,4.062 -2.79824,4.65524 -3.11242,7.29883 -2.27547,15.28995 -1.57906,15.57265 7.26171,1.26492 17.18237,10.63135 20.59026,15.6346 8.32277,12.21904 14.68805,26.06739 16.41832,30.01636 2.44019,5.5691 4.35956,10.86683 5.58199,16.2199 0.2101,0.92016 0.28341,1.12283 -0.26434,2.08672 -0.5478,0.9639 -0.54646,0.94826 -1.30165,0.98091 -64.82104,-0.23215 -63.95004,-26.47552 -126.040967,-26.71706 -0.725105,-0.0645 -0.767544,-0.0762 -1.78471,-1.65544 -1.017183,-1.57934 -1.049172,-1.68713 -1.040915,-2.19372 z"
           id="path12997"
           inkscape:connector-curvature="0"
           sodipodi:nodetypes="ccccccccccsccccscsccssccccscccsscccscscccccsccccccsccscccccsccccccccccsccccsccccccscssccsscsssscccccccccccsccccscscssszcczcc" />
      </g>
    </g>
  </g>
</svg>
